<svg xmlns="http://www.w3.org/2000/svg" viewBox="0 0 1000 1140" width="1000" height="1140" role="img" aria-label="WHISH QR placeholder">
<rect width="1000" height="1140" fill="#fff"/><rect x="120" y="120" width="84" height="84" fill="#0B3E80"/><rect x="204" y="792" width="84" height="84" fill="#0B3E80"/><rect x="288" y="708" width="84" height="84" fill="#0B3E80"/><rect x="372" y="624" width="84" height="84" fill="#0B3E80"/><rect x="456" y="540" width="84" height="84" fill="#0B3E80"/><rect x="540" y="456" width="84" height="84" fill="#0B3E80"/><rect x="624" y="372" width="84" height="84" fill="#0B3E80"/><rect x="708" y="288" width="84" height="84" fill="#0B3E80"/><rect x="792" y="204" width="84" height="84" fill="#0B3E80"/><rect x="120" y="120" width="84" height="84" fill="#0B3E80"/><rect x="204" y="792" width="84" height="84" fill="#0B3E80"/><rect x="288" y="708" width="84" height="84" fill="#0B3E80"/><rect x="372" y="624" width="84" height="84" fill="#0B3E80"/><rect x="456" y="540" width="84" height="84" fill="#0B3E80"/><rect x="540" y="456" width="84" height="84" fill="#0B3E80"/><rect x="624" y="372" width="84" height="84" fill="#0B3E80"/><rect x="708" y="288" width="84" height="84" fill="#0B3E80"/><rect x="792" y="204" width="84" height="84" fill="#0B3E80"/><rect x="120" y="120" width="84" height="84" fill="#0B3E80"/><rect x="204" y="792" width="84" height="84" fill="#0B3E80"/><rect x="288" y="708" width="84" height="84" fill="#0B3E80"/><rect x="372" y="624" width="84" height="84" fill="#0B3E80"/><rect x="456" y="540" width="84" height="84" fill="#0B3E80"/><rect x="540" y="456" width="84" height="84" fill="#0B3E80"/><rect x="624" y="372" width="84" height="84" fill="#0B3E80"/><rect x="708" y="288" width="84" height="84" fill="#0B3E80"/><rect x="792" y="204" width="84" height="84" fill="#0B3E80"/><rect x="120" y="120" width="84" height="84" fill="#0B3E80"/><rect x="204" y="792" width="84" height="84" fill="#0B3E80"/><rect x="288" y="708" width="84" height="84" fill="#0B3E80"/><rect x="372" y="624" width="84" height="84" fill="#0B3E80"/><rect x="456" y="540" width="84" height="84" fill="#0B3E80"/><rect x="540" y="456" width="84" height="84" fill="#0B3E80"/><rect x="624" y="372" width="84" height="84" fill="#0B3E80"/><rect x="120" y="120" width="252" height="252" fill="#0B3E80"/><rect x="162" y="162" width="168" height="168" fill="#fff"/><rect x="204" y="204" width="84" height="84" fill="#0B3E80"/><rect x="628" y="120" width="252" height="252" fill="#0B3E80"/><rect x="670" y="162" width="168" height="168" fill="#fff"/><rect x="712" y="204" width="84" height="84" fill="#0B3E80"/><rect x="120" y="628" width="252" height="252" fill="#0B3E80"/><rect x="162" y="670" width="168" height="168" fill="#fff"/><rect x="204" y="712" width="84" height="84" fill="#0B3E80"/>
<rect x="120" y="960" width="760" height="76" fill="#FFE400"/>
<text x="500" y="1012" text-anchor="middle" font-family="Outfit, Helvetica, Arial, sans-serif" font-size="38" font-weight="700" fill="#0B3E80" letter-spacing="3">WHISH — PLACEHOLDER QR</text>
</svg>